<?xml version="1.0" standalone="no"?>
<!DOCTYPE svg PUBLIC "-//W3C//DTD SVG 20010904//EN"
 "http://www.w3.org/TR/2001/REC-SVG-20010904/DTD/svg10.dtd">
<svg version="1.0" xmlns="http://www.w3.org/2000/svg"
 width="700.000000pt" height="700.000000pt" viewBox="0 0 700.000000 700.000000"
 preserveAspectRatio="xMidYMid meet">
<metadata>
Created by potrace 1.14, written by Peter Selinger 2001-2017
</metadata>
<g transform="translate(0.000000,700.000000) scale(0.100000,-0.100000)"
fill="#000000" stroke="none">
<path d="M3414 6486 c-24 -17 -289 -224 -399 -311 -217 -171 -467 -441 -646
-695 -162 -229 -312 -519 -416 -800 -55 -151 -138 -471 -158 -613 -3 -27 -8
-58 -10 -69 -8 -39 -23 -177 -24 -224 -1 -20 -3 -20 -87 -7 -48 7 -121 15
-163 19 -104 10 -1282 11 -1288 1 -5 -9 -4 -979 2 -1062 4 -63 12 -133 20
-175 2 -14 7 -42 9 -62 26 -181 111 -439 211 -643 67 -135 180 -324 233 -386
11 -13 41 -51 68 -84 160 -200 378 -389 612 -532 104 -63 281 -153 332 -168
14 -4 30 -11 35 -15 9 -6 179 -63 270 -89 78 -23 262 -56 375 -68 97 -10 2124
-10 2214 0 252 28 422 69 654 159 550 213 1011 639 1277 1183 106 215 188 478
219 695 12 85 17 128 21 175 3 37 7 922 5 1060 0 20 -6 20 -617 19 -340 0
-647 -4 -683 -8 -102 -11 -143 -16 -170 -21 -80 -16 -74 -23 -85 85 -26 253
-108 578 -210 840 -180 459 -441 855 -795 1203 -153 151 -288 260 -576 469
l-201 145 -29 -21z m140 -600 c471 -345 814 -778 1034 -1308 64 -154 149 -433
167 -553 2 -11 9 -49 15 -85 6 -36 13 -76 15 -90 4 -22 11 -94 20 -193 2 -26
-3 -31 -59 -55 -354 -150 -692 -407 -930 -705 -69 -87 -186 -252 -186 -262 0
-3 -17 -33 -38 -67 -21 -35 -49 -87 -62 -115 -14 -29 -27 -53 -30 -53 -3 0
-20 31 -38 68 -49 97 -126 224 -200 327 -36 50 -67 92 -71 95 -3 3 -24 27 -46
55 -93 116 -298 305 -430 396 -27 19 -52 36 -55 39 -27 29 -311 184 -418 228
l-53 21 6 93 c3 51 7 102 9 114 2 11 7 45 10 75 3 30 8 64 10 75 2 12 7 37 10
55 13 80 37 188 51 234 9 27 17 60 19 72 8 39 77 236 118 333 198 466 494 855
902 1182 67 54 123 97 125 98 2 0 49 -33 105 -74z m-2029 -2538 c6 -3 35 -9
66 -12 173 -20 383 -84 564 -171 103 -50 183 -93 195 -105 3 -3 16 -11 30 -19
65 -36 225 -166 315 -256 254 -253 427 -551 520 -895 14 -52 28 -111 31 -130
3 -19 7 -42 9 -50 4 -16 13 -94 20 -170 3 -38 8 -491 6 -583 l-1 -28 -402 2
c-449 2 -528 8 -749 64 -85 21 -196 58 -254 84 -81 36 -224 107 -245 121 -14
9 -59 39 -100 66 -155 102 -280 216 -434 394 -46 54 -173 245 -209 315 -73
142 -122 267 -161 405 -30 108 -54 244 -62 355 -7 87 -12 603 -7 617 4 8 854
4 868 -4z m4819 -267 c-2 -371 -12 -478 -65 -678 -53 -201 -145 -410 -257
-579 -284 -431 -721 -734 -1214 -845 -186 -41 -268 -47 -685 -48 l-403 -2 -1
118 c-1 222 2 438 6 483 12 130 19 174 41 275 29 134 49 202 99 324 179 441
520 808 950 1023 129 64 315 132 423 153 9 2 51 10 93 19 42 8 114 19 160 22
46 4 85 7 86 8 1 1 175 2 385 3 l383 0 -1 -276z"/>
</g>
</svg>
